<?xml version="1.0" standalone="no"?>
<!DOCTYPE svg PUBLIC "-//W3C//DTD SVG 20010904//EN"
 "http://www.w3.org/TR/2001/REC-SVG-20010904/DTD/svg10.dtd">
<svg version="1.0" xmlns="http://www.w3.org/2000/svg"
 width="700.000000pt" height="700.000000pt" viewBox="0 0 700.000000 700.000000"
 preserveAspectRatio="xMidYMid meet">
<metadata>
Created by potrace 1.11, written by Peter Selinger 2001-2013
</metadata>
<g transform="translate(0.000000,700.000000) scale(0.100000,-0.100000)"
fill="#000000" stroke="none">
<path d="M3195 6308 c-11 -32 -23 -103 -19 -110 3 -4 13 -12 23 -18 16 -8 22
-2 42 47 l23 56 -23 18 c-27 22 -40 24 -46 7z"/>
<path d="M2882 6273 c-5 -10 -12 -29 -15 -43 -5 -20 -19 -29 -66 -46 l-59 -20
8 22 c12 30 -9 57 -41 52 -21 -3 -25 -10 -34 -66 -8 -49 -18 -72 -45 -103 -19
-23 -36 -45 -38 -50 -6 -16 11 -10 34 12 l22 21 -9 -44 c-15 -66 -30 -108 -39
-108 -4 0 -16 -32 -25 -70 -18 -75 -53 -134 -56 -95 -1 11 -1 40 -1 65 0 52
-11 70 -44 70 -18 0 -24 -6 -25 -22 -2 -76 -38 -182 -65 -192 -56 -22 -29 204
31 254 15 13 19 12 35 -8 21 -26 40 -29 40 -6 0 57 -58 72 -110 27 -41 -34
-106 -167 -120 -244 -15 -84 -52 -159 -77 -159 -5 0 -17 8 -27 18 -15 18 -14
22 19 77 33 55 40 76 49 150 8 68 -33 85 -83 34 -50 -50 -86 -151 -95 -264 -5
-77 -22 -123 -38 -107 -12 12 -13 56 -4 183 5 75 -4 100 -31 83 -9 -6 -26 -26
-36 -45 -21 -39 -43 -63 -35 -39 10 28 -10 62 -34 58 -20 -3 -22 -8 -19 -58 1
-30 7 -60 12 -66 5 -6 10 -32 10 -58 3 -63 23 -54 27 11 2 35 9 56 22 68 19
17 19 16 13 -73 -4 -73 -2 -97 11 -124 l17 -33 -53 -47 c-29 -25 -55 -44 -57
-42 -2 2 -3 35 -2 72 2 76 -27 175 -57 188 -42 18 -76 -2 -103 -61 -10 -22
-19 -35 -20 -30 -1 11 -2 16 -19 100 -19 94 -34 111 -73 82 -16 -11 -16 -16
-3 -62 8 -28 27 -106 41 -175 28 -128 68 -249 86 -260 5 -4 -16 -38 -48 -78
l-58 -72 -12 63 c-17 90 -28 120 -41 125 -16 5 -15 -11 3 -78 17 -62 20 -124
6 -115 -6 3 -24 30 -41 59 -23 41 -35 53 -49 49 -13 -3 -20 2 -25 20 -12 50
-85 37 -106 -19 -38 -99 13 -287 85 -314 14 -5 25 -11 25 -14 0 -2 -21 -41
-46 -86 l-47 -83 -32 69 c-37 79 -60 112 -70 102 -4 -4 5 -31 20 -59 36 -70
57 -139 42 -139 -7 1 -43 39 -81 85 -38 47 -77 85 -86 85 -29 0 -42 -26 -39
-76 3 -44 1 -48 -25 -57 -26 -9 -27 -12 -25 -64 2 -49 0 -56 -22 -66 -36 -19
-34 -39 10 -92 22 -27 38 -52 35 -56 -3 -5 18 -42 46 -82 70 -104 68 -123 -9
-61 -47 37 -77 41 -95 12 -9 -14 -4 -23 25 -50 44 -40 89 -110 89 -138 0 -79
-172 77 -174 159 -1 33 1 36 26 36 33 0 47 13 28 25 -22 14 -66 12 -78 -3 -61
-73 75 -317 176 -317 23 0 23 -2 17 -62 -9 -91 -15 -131 -19 -135 -14 -15
-327 172 -413 246 -6 6 -23 13 -37 17 -21 5 -26 2 -32 -20 -8 -35 13 -146 43
-220 45 -110 112 -199 202 -266 57 -42 79 -48 99 -28 20 20 14 42 -16 56 -37
16 -128 94 -164 140 -16 20 -34 44 -41 52 -28 36 -85 175 -75 185 2 3 35 -17
74 -42 115 -78 240 -149 301 -172 l58 -22 1 -87 c1 -90 11 -272 18 -307 2 -11
7 -42 10 -70 4 -27 16 -92 26 -144 11 -52 18 -96 16 -98 -2 -2 -32 10 -67 27
-35 16 -70 30 -76 30 -29 0 -9 -18 49 -46 77 -36 128 -83 128 -117 0 -41 -34
-41 -66 0 -33 43 -119 99 -166 108 -101 19 -42 -121 76 -182 17 -9 36 -22 41
-28 6 -7 35 -21 65 -30 130 -42 149 -71 38 -62 -40 4 -84 9 -98 12 -107 22
-217 39 -255 39 -27 1 -30 -3 -33 -31 -3 -31 -1 -33 30 -35 18 0 38 -2 43 -3
6 0 33 -5 60 -9 87 -13 93 -16 93 -43 0 -61 84 -125 228 -172 123 -40 166 -59
159 -72 -4 -5 -27 -7 -53 -4 -170 18 -199 17 -204 -2 -10 -44 0 -53 63 -53 33
0 68 -4 77 -9 9 -5 43 -11 74 -15 64 -6 122 -31 112 -47 -6 -11 -69 -7 -170 9
-49 8 -92 7 -102 -3 -11 -11 11 -37 55 -65 l48 -30 -36 0 c-29 0 -38 -5 -42
-22 -3 -12 -4 -25 -2 -28 6 -10 213 4 224 15 10 11 -31 22 -86 24 -12 1 -27
10 -33 21 -10 19 -9 20 21 15 59 -11 165 -14 179 -5 9 6 26 -8 59 -48 25 -32
56 -68 68 -82 30 -33 29 -37 -9 -37 -116 -1 -138 -4 -138 -17 0 -10 18 -13 83
-11 45 1 91 -1 102 -5 18 -7 16 -10 -16 -23 -19 -9 -48 -19 -63 -23 -16 -4
-31 -17 -37 -31 -5 -13 -13 -21 -19 -18 -5 3 -21 -6 -34 -20 -21 -23 -23 -30
-14 -51 6 -14 34 -35 63 -49 94 -46 244 -36 292 20 l22 25 33 -29 c18 -15 75
-60 126 -99 l93 -71 -38 -7 c-69 -12 -133 -36 -133 -50 0 -17 -2 -17 50 1 52
18 109 26 133 19 35 -11 -2 -31 -109 -60 -59 -15 -112 -34 -120 -41 -22 -22
-5 -41 44 -48 64 -9 70 -15 33 -31 -27 -11 -30 -16 -22 -36 12 -33 61 -21 123
28 15 12 41 25 58 29 16 4 30 10 30 15 0 16 -25 17 -63 4 -32 -11 -43 -11 -64
-1 -24 13 -21 15 60 36 52 14 96 32 111 46 l25 23 58 -31 57 -31 -29 -12 c-17
-7 -34 -13 -40 -14 -5 0 -31 -16 -56 -34 -36 -27 -49 -44 -59 -81 -12 -43 -12
-48 8 -67 14 -15 38 -23 75 -26 61 -5 112 9 240 65 128 56 129 37 3 -47 -271
-182 -274 -185 -256 -221 16 -28 36 -24 88 20 26 21 120 91 209 155 178 127
158 121 257 83 l28 -10 -28 -16 c-54 -30 -113 -76 -114 -88 0 -19 5 -17 62 23
45 32 107 64 123 64 3 0 1 -10 -6 -23 -12 -23 -71 -83 -224 -225 -72 -68 -87
-87 -79 -100 26 -41 37 -36 139 63 137 132 305 259 321 242 11 -11 -37 -72
-163 -206 -65 -68 -119 -130 -121 -136 -3 -13 24 -45 38 -45 9 0 28 20 140
144 41 46 89 91 105 99 17 9 48 34 70 57 42 44 95 77 95 60 0 -5 -14 -32 -31
-59 -24 -40 -28 -54 -20 -70 8 -14 7 -22 -4 -31 -20 -16 -19 -54 1 -71 22 -18
93 -15 133 5 44 23 115 90 142 132 17 28 22 46 28 95 1 6 161 10 161 3 0 -3
-18 -33 -40 -66 -44 -69 -54 -104 -20 -73 12 10 30 35 42 54 19 32 75 91 86
91 9 0 -13 -70 -44 -137 -38 -82 -40 -95 -19 -113 27 -22 47 -6 74 60 34 86
72 148 111 185 l33 30 -7 -38 c-4 -21 -23 -72 -41 -114 -38 -82 -35 -113 8
-113 20 0 28 14 65 118 22 64 44 127 47 140 5 16 14 22 35 22 l29 0 -24 -52
c-56 -120 -10 -230 81 -192 48 20 112 99 130 161 14 50 14 75 -2 116 -3 10 5
18 27 26 18 6 34 9 37 7 2 -3 -5 -57 -15 -120 -21 -122 -18 -136 24 -136 25 0
29 11 38 92 6 61 37 149 67 190 22 32 23 32 26 10 2 -13 -4 -69 -13 -124 -19
-108 -16 -118 31 -118 20 0 23 8 33 98 7 53 13 118 14 144 l2 47 65 30 c36 17
68 31 71 31 3 0 -2 -33 -11 -73 -10 -39 -16 -75 -13 -79 11 -20 23 -3 33 50
19 91 43 137 80 152 27 11 33 11 41 -1 13 -20 12 -24 -16 -57 -77 -92 -96
-250 -27 -228 28 9 81 62 94 95 34 87 59 167 60 196 2 52 38 118 72 130 25 8
31 6 52 -18 28 -32 31 -90 9 -147 l-13 -35 -1 40 c-1 47 -15 65 -48 65 -23 0
-24 -2 -21 -87 l3 -88 31 -3 c26 -3 33 2 49 32 10 19 21 33 25 31 3 -2 6 -43
8 -92 3 -94 14 -116 52 -106 18 5 24 14 22 34 -16 159 -22 318 -12 324 5 3 9
44 9 91 0 46 3 89 6 94 13 21 23 8 39 -49 17 -63 25 -70 64 -63 20 4 23 9 17
31 -12 41 -14 164 -4 183 42 79 104 -143 62 -224 -15 -32 -20 -33 -47 -13 -27
20 -36 19 -36 -5 0 -21 36 -46 60 -41 28 5 59 44 76 93 16 51 22 177 12 263
-7 61 2 94 20 73 14 -17 52 -133 81 -243 l20 -77 -34 -45 c-19 -25 -35 -52
-35 -59 0 -28 18 -21 48 18 l31 41 12 -27 c8 -17 20 -26 34 -26 40 0 45 20 21
85 -21 56 -22 63 -9 113 8 30 12 56 9 59 -10 10 -26 -9 -26 -30 0 -34 -15 -7
-35 63 -10 36 -31 95 -47 131 l-30 67 45 61 44 61 19 -72 c10 -39 25 -74 33
-76 14 -5 14 0 -4 68 -13 51 -18 130 -8 130 14 0 54 -82 126 -255 53 -127 66
-150 85 -151 48 -3 47 20 -6 138 -27 62 -56 133 -65 158 -38 111 -65 209 -62
226 2 10 4 21 4 23 3 16 59 -80 132 -223 47 -94 92 -172 100 -174 8 -1 23 4
34 12 20 15 20 15 -4 58 -12 24 -55 105 -94 181 -39 76 -85 154 -102 174 l-32
37 34 68 c19 37 38 68 42 68 18 0 135 -146 237 -297 37 -54 71 -104 76 -110
17 -21 46 4 58 48 49 181 16 386 -85 527 -33 45 -53 52 -78 24 -15 -16 -14
-20 14 -52 35 -41 86 -145 106 -215 17 -63 25 -171 15 -208 -7 -27 -10 -24
-86 83 -43 61 -113 148 -155 192 l-77 82 33 90 c30 83 78 244 88 299 3 12 11
56 19 97 9 41 18 98 21 125 3 28 8 66 10 85 6 40 7 381 1 422 -3 25 0 24 69
-28 39 -30 77 -54 83 -54 23 0 11 19 -30 47 -93 63 -150 143 -117 164 23 14
49 10 56 -8 25 -69 129 -163 179 -163 27 0 36 28 23 75 -17 61 -109 156 -197
202 -29 15 -63 38 -75 51 l-22 24 40 -4 c22 -3 75 -15 118 -29 78 -23 79 -23
93 -4 13 17 10 53 -5 65 -3 3 -14 15 -25 27 -15 18 -16 26 -7 37 7 8 11 25 9
37 -2 18 -14 25 -63 37 -33 8 -67 20 -75 27 -8 7 -42 26 -75 43 -33 16 -69 39
-79 51 -18 20 -18 21 -1 21 10 0 64 -14 122 -31 85 -25 106 -29 119 -18 32 26
12 51 -53 69 -34 9 -68 22 -75 28 -7 5 -32 15 -56 22 -51 13 -104 41 -110 58
-3 9 18 10 80 5 136 -10 150 -9 161 9 14 21 -5 61 -39 79 -13 7 -22 14 -20 16
2 2 47 -4 101 -13 82 -14 99 -14 106 -3 12 19 11 59 -1 60 -5 1 -13 2 -17 3
-5 1 -44 6 -88 11 -44 5 -82 9 -85 10 -3 0 -32 5 -65 9 -33 4 -70 14 -82 21
-12 8 -36 16 -55 18 -65 8 -119 28 -151 57 l-32 29 20 20 c28 28 99 35 170 16
57 -15 85 -30 85 -46 0 -5 -9 -9 -20 -9 -11 0 -20 -5 -20 -10 0 -16 27 -23 56
-16 22 6 25 11 19 34 -3 15 -16 37 -27 49 -27 29 -115 73 -145 73 -13 0 -26 6
-28 13 -3 7 -29 13 -68 15 -72 2 -123 14 -120 28 1 5 29 15 61 22 46 10 61 18
65 34 3 11 10 17 16 14 17 -11 61 24 61 48 0 26 -53 80 -95 96 -16 7 -50 14
-75 16 -25 3 -50 12 -56 20 -9 11 -27 13 -86 8 -74 -7 -137 0 -124 14 4 3 55
22 114 42 97 32 107 37 110 61 2 21 -3 29 -30 42 -18 8 -42 17 -53 19 -15 3
-19 10 -17 30 3 29 -22 48 -80 62 -23 5 -28 12 -28 37 0 16 -6 32 -13 35 -27
10 -273 -86 -279 -109 -2 -8 -33 8 -86 44 l-82 57 45 6 c64 10 148 40 153 55
5 15 -33 9 -103 -15 -54 -19 -120 -18 -139 2 -19 18 -19 20 -5 45 7 14 16 18
30 14 23 -8 126 -9 156 -2 35 9 84 37 90 53 16 42 -93 80 -185 63 -25 -5 -53
-7 -62 -4 -10 3 -46 -8 -81 -24 -74 -33 -119 -46 -119 -32 0 10 30 36 128 111
28 22 52 47 52 55 0 26 -43 45 -88 39 -37 -5 -42 -3 -42 14 0 32 -25 44 -80
40 -35 -2 -50 1 -50 10 0 6 -9 21 -20 32 l-21 21 -42 -35 c-23 -19 -81 -54
-129 -79 -175 -90 -183 -69 -23 58 65 52 75 66 64 86 -15 30 -34 28 -75 -8
-21 -19 -50 -42 -64 -51 -14 -9 -47 -33 -75 -53 -27 -21 -63 -41 -79 -45 -27
-6 -28 -6 -16 16 6 12 60 71 119 132 l108 111 49 -9 c43 -8 49 -12 56 -41 5
-18 12 -33 17 -33 5 0 28 17 51 38 l43 38 -17 32 c-20 38 -28 40 -45 9 -13
-24 -27 -25 -93 -9 -5 1 -14 2 -20 2 -9 0 -10 3 -2 8 6 4 16 17 22 28 9 17 8
25 -7 38 -26 24 -33 21 -80 -33 -35 -40 -53 -52 -92 -61 -58 -14 -73 -30 -29
-30 l32 0 -68 -69 c-70 -73 -124 -145 -124 -168 0 -7 -6 -13 -13 -13 -33 0
-183 23 -189 29 -4 3 15 35 42 70 28 36 50 69 50 74 0 12 -31 36 -47 37 -7 0
-26 -20 -42 -44 -55 -79 -141 -126 -141 -77 0 53 124 184 170 179 14 -2 26 -9
26 -15 1 -7 2 -20 3 -28 2 -22 28 -18 34 4 2 11 -1 30 -7 43 -10 20 -19 23
-66 23 -43 -1 -64 -7 -95 -28 -87 -60 -115 -84 -149 -128 -36 -48 -82 -84 -90
-71 -2 4 18 51 45 106 39 78 47 102 39 117 -14 25 -46 24 -88 -1 -30 -19 -35
-19 -55 -5 -35 24 -51 18 -70 -29 -24 -58 -157 -226 -179 -226 -15 0 -8 21 43
127 49 101 51 107 34 120 -31 22 -45 15 -67 -34 -12 -27 -31 -61 -43 -78 -12
-16 -35 -54 -50 -82 -15 -29 -37 -61 -48 -70 -19 -18 -19 -17 -14 22 2 22 15
75 27 117 19 63 21 80 10 93 -19 22 -44 18 -81 -12 -18 -16 -31 -21 -27 -13 3
8 18 53 33 99 27 81 27 85 9 98 -24 18 -42 16 -52 -4z m-67 -210 c-20 -59 -41
-110 -46 -113 -4 -3 -19 -33 -31 -66 -13 -33 -33 -73 -45 -89 l-22 -30 -1 45
c0 58 56 289 76 311 8 9 32 22 54 29 22 7 40 18 40 23 0 6 3 8 6 5 3 -3 -11
-55 -31 -115z m568 -30 c-20 -43 -37 -91 -38 -108 -2 -24 -8 -31 -33 -36 -50
-10 -55 1 -32 62 18 51 108 159 130 159 5 0 -7 -35 -27 -77z m-457 0 c-31
-106 -37 -140 -34 -174 3 -35 1 -40 -26 -49 -45 -16 -57 -13 -52 13 2 12 7 41
11 65 4 23 25 69 47 102 38 58 65 79 54 43z m277 -115 c-7 -40 -3 -35 -37 -44
l-30 -7 35 41 c19 23 35 42 36 42 1 0 0 -15 -4 -32z m333 -55 c-3 -19 -22 -24
-53 -12 -15 5 -21 14 -17 24 4 9 1 15 -7 15 -7 0 0 13 15 29 l29 30 17 -35
c10 -19 17 -42 16 -51z m949 5 c-27 -23 -69 -61 -92 -85 -40 -40 -44 -42 -75
-31 -18 6 -35 13 -37 15 -7 6 79 82 113 100 29 15 109 41 131 42 6 0 -12 -18
-40 -41z m-1448 3 c1 -11 -6 -21 -18 -24 -19 -5 -18 2 4 31 12 16 12 15 14 -7z
m1214 -45 c-13 -14 -20 -29 -17 -35 4 -6 -5 -7 -26 0 -18 5 -35 9 -38 10 -5 1
90 47 99 48 3 1 -6 -10 -18 -23z m399 20 c0 -2 -32 -30 -70 -62 -39 -32 -73
-69 -76 -81 -6 -22 -7 -22 -42 -7 -20 8 -38 17 -41 19 -7 8 49 63 87 87 44 27
142 58 142 44z m-1908 -69 c-20 -13 -23 -4 -9 26 12 26 12 26 18 4 3 -13 0
-25 -9 -30z m792 12 c10 -9 -39 -69 -56 -69 -4 0 -8 20 -8 45 0 44 1 45 28 39
15 -4 31 -10 36 -15z m-1342 -48 c-3 -48 -39 -141 -55 -141 -6 0 -8 22 -4 59
9 104 66 182 59 82z m418 8 c0 -18 -27 -45 -36 -36 -3 3 -1 22 6 43 9 26 15
33 21 23 5 -8 9 -21 9 -30z m927 -506 c1 -298 5 -475 13 -507 37 -165 188
-321 354 -366 183 -50 360 -4 494 128 95 95 139 189 149 322 11 152 -38 283
-143 387 -107 106 -190 142 -340 149 -101 4 -173 -10 -254 -51 -45 -23 -50
-24 -51 -8 0 10 -1 100 -2 201 -2 163 -1 182 14 182 39 0 203 -33 309 -62 261
-71 533 -205 745 -367 208 -159 431 -406 557 -619 135 -226 243 -514 282 -749
37 -220 41 -513 11 -698 -63 -384 -196 -700 -419 -1000 -75 -101 -80 -106 -67
-72 6 16 11 30 11 33 0 2 -54 4 -121 4 l-121 0 -44 -38 c-24 -22 -65 -46 -91
-55 -64 -20 -165 -15 -219 12 -44 21 -134 114 -134 137 0 11 67 13 372 14 205
0 376 4 381 9 15 15 8 183 -9 241 -62 211 -256 359 -475 362 -136 1 -250 -40
-346 -126 -134 -121 -194 -297 -162 -476 34 -182 187 -345 370 -393 106 -27
287 -7 354 39 25 18 41 18 23 1 -61 -59 -220 -180 -326 -246 -75 -47 -87 -51
-120 -44 -20 4 -46 6 -57 4 -36 -5 -99 -48 -146 -100 -29 -32 -55 -51 -68 -51
-12 0 -42 -9 -66 -20 -87 -39 -298 -87 -475 -106 -90 -10 -328 -11 -409 -3
-211 23 -409 66 -438 95 -8 8 -29 14 -46 12 -40 -2 -167 48 -323 127 -164 84
-323 191 -453 307 l-46 41 44 -23 c92 -46 251 -60 361 -30 126 33 257 143 315
264 164 344 -75 727 -455 727 -91 0 -187 -24 -247 -61 -30 -18 -33 -18 -34 -2
-1 9 -2 96 -3 192 l-1 174 -107 78 -108 78 0 -52 c-4 -947 0 -1041 45 -1130 7
-16 12 -28 10 -28 -7 0 -153 202 -197 274 -141 230 -266 563 -293 776 -4 30
-8 57 -10 60 -9 14 -18 153 -20 289 -4 346 70 669 225 986 144 294 340 540
600 750 261 211 606 372 943 439 71 14 139 26 153 26 l24 0 0 -200 -1 -199
-25 9 c-13 5 -34 16 -46 23 -51 32 -155 50 -245 44 -102 -7 -167 -27 -240 -73
-275 -175 -320 -554 -91 -783 220 -220 563 -198 759 48 35 44 96 161 84 161
-2 0 0 12 6 28 7 17 12 182 15 462 2 239 3 443 4 452 0 14 41 46 60 48 3 0 6
-206 7 -457z m1431 448 c30 -18 -44 -46 -133 -50 -71 -3 -66 9 16 39 58 21 96
25 117 11z m-2522 -37 c-25 -18 -31 -12 -16 16 9 17 15 19 23 10 9 -9 7 -15
-7 -26z m2226 4 c-5 -7 -12 -23 -14 -35 -3 -22 -4 -22 -36 -6 -36 18 -35 23
11 40 42 15 52 16 39 1z m-2359 -74 c-2 -6 -15 -16 -29 -22 -28 -13 -31 -4
-13 46 l11 32 18 -22 c10 -12 16 -28 13 -34z m-193 -124 c0 -3 -15 -15 -34
-27 l-33 -21 10 43 c10 43 10 44 33 27 13 -9 23 -19 24 -22z m-355 -37 c21
-44 29 -160 13 -203 -14 -40 -43 -39 -65 3 -24 44 -24 160 0 205 10 17 21 32
26 32 5 0 17 -17 26 -37z m3505 -1 c0 -5 -26 -16 -57 -26 -32 -10 -81 -30
-109 -45 l-51 -27 -29 22 c-34 28 -28 36 42 64 50 20 204 29 204 12z m100 -91
c17 -2 -85 -46 -129 -56 -16 -3 -41 -17 -54 -29 l-26 -24 -28 30 c-27 29 -27
30 -8 41 61 37 138 49 245 38z m-42 -193 c-8 -7 -20 -21 -25 -31 -8 -16 -12
-14 -38 13 l-29 30 54 0 c45 0 51 -2 38 -12z m-2252 -22 c106 -49 168 -146
168 -261 -1 -255 -314 -381 -487 -196 -59 63 -79 110 -79 191 0 87 7 109 54
175 75 106 226 146 344 91z m1093 -4 c57 -30 102 -75 132 -132 33 -65 34 -186
0 -249 -94 -179 -332 -214 -466 -70 -77 83 -98 214 -50 315 29 61 99 126 158
148 62 23 171 17 226 -12z m1449 -38 c20 -13 21 -18 10 -32 -19 -25 -31 -31
-42 -25 -5 4 -51 7 -102 7 -71 1 -97 5 -109 17 -15 15 -15 18 -1 32 9 9 38 19
64 22 26 3 54 7 62 9 24 3 93 -14 118 -30z m-4207 -15 c12 -6 18 -17 15 -25
-3 -8 4 -32 15 -54 27 -52 39 -170 17 -170 -48 0 -120 181 -95 238 11 25 20
27 48 11z m3988 -58 c9 -6 10 -11 2 -15 -13 -8 -31 1 -31 15 0 11 11 11 29 0z
m118 -152 c-21 -17 -22 -17 -39 4 -26 32 -22 36 22 25 l39 -10 -22 -19z m117
-183 l38 -13 -28 -6 c-28 -5 -54 6 -54 24 0 11 -3 11 44 -5z m-4347 -249 c-5
-15 -13 -29 -18 -32 -15 -10 -89 79 -108 130 -38 103 -37 104 50 15 77 -78 83
-87 76 -113z m4558 138 c75 -37 75 -38 0 -35 -94 4 -130 4 -151 -3 -16 -6 -23
-1 -37 28 -9 20 -17 38 -17 40 0 3 30 5 68 5 56 0 78 -6 137 -35z m-4602 -250
c-1 -5 -7 -23 -13 -38 l-10 -29 -41 44 c-22 24 -47 55 -54 69 -16 31 -45 109
-45 124 0 6 37 -28 83 -75 45 -47 81 -89 80 -95z m4578 -83 c-15 -3 -30 3 -38
14 -22 31 -14 34 25 11 35 -21 36 -22 13 -25z m-4621 -54 c0 -18 -17 -6 -34
25 l-19 32 26 -24 c15 -14 27 -28 27 -33z m4728 -34 c19 -7 52 -28 75 -46 23
-17 44 -33 46 -35 2 -2 2 -5 -1 -8 -3 -3 -25 1 -49 9 -53 17 -126 31 -155 29
-18 -2 -24 6 -32 39 l-10 40 46 -7 c26 -4 62 -13 80 -21z m-39 -193 l24 -19
-22 -7 c-26 -8 -26 -8 -35 23 -9 27 1 28 33 3z m130 -133 c97 -58 143 -141 52
-93 -29 14 -101 91 -101 107 0 12 10 10 49 -14z m-4953 -983 c42 -25 70 -52
62 -60 -11 -11 -109 28 -138 55 -60 56 -16 59 76 5z m184 -155 c0 -17 -3 -18
-26 -8 -23 11 -24 13 -7 19 29 12 33 10 33 -11z m1125 -76 c234 -92 244 -414
16 -526 -61 -30 -177 -32 -235 -4 -52 26 -125 101 -148 154 -22 49 -26 143 -8
199 49 150 228 235 375 177z m2459 -2 c51 -18 117 -75 142 -124 l15 -28 -38
-1 c-184 -4 -467 -3 -476 3 -17 10 40 86 90 121 46 33 131 56 183 50 19 -2 57
-12 84 -21z m-3659 -67 c78 -11 158 -49 153 -73 -10 -52 -214 -11 -252 51 -15
24 8 38 49 31 17 -3 39 -7 50 -9z m224 -179 c-3 -3 -15 -3 -27 1 -18 4 -20 8
-11 20 11 12 14 12 28 -1 8 -9 13 -18 10 -20z m432 -588 c12 -20 -9 -37 -69
-54 -64 -19 -165 -15 -187 7 -13 13 -13 17 1 37 10 15 20 20 27 14 8 -6 25 -5
47 3 43 15 170 10 181 -7z m2689 -196 c0 -9 -110 -65 -116 -59 -2 2 9 18 26
35 21 22 40 32 60 32 17 0 30 -4 30 -8z m204 -259 c-7 -66 -21 -107 -44 -128
-17 -15 -20 -16 -25 -3 -11 28 49 178 71 178 2 0 1 -21 -2 -47z m-2265 22 c21
-29 -19 -82 -89 -118 -51 -27 -123 -36 -134 -18 -7 10 17 21 45 21 10 0 19 2
19 4 0 2 3 12 7 21 5 15 1 16 -25 10 -38 -8 -40 -3 -9 26 53 51 164 83 186 54z
m134 -61 c-67 -27 -69 -27 -65 9 l4 34 44 -16 45 -16 -28 -11z m1520 -159 c-7
-85 -64 -175 -111 -175 -12 0 -11 5 6 23 22 24 30 67 12 67 -5 0 -16 -12 -23
-26 -21 -40 -27 -9 -11 54 33 128 136 174 127 57z m-1108 45 c-3 -5 -15 -15
-26 -21 -19 -10 -20 -9 -9 10 6 12 18 21 26 21 8 0 12 -4 9 -10z m145 -45
c-27 -29 -32 -28 -23 3 3 14 13 22 26 22 20 0 20 -1 -3 -25z m235 -25 c12 -19
-36 -99 -86 -144 -44 -40 -90 -61 -104 -48 -9 9 -5 63 4 57 6 -3 23 14 40 39
31 44 105 106 127 106 7 0 16 -5 19 -10z"/>
<path d="M4521 4460 l0 -110 110 0 109 0 0 110 0 110 -109 0 -110 0 0 -110z"/>
<path d="M2153 4179 c-129 -32 -232 -105 -307 -218 -61 -91 -76 -161 -79 -368
-2 -100 0 -188 3 -197 7 -19 192 -156 212 -156 2 0 3 81 3 181 0 235 9 356 29
394 71 135 236 195 372 136 58 -26 111 -77 141 -135 30 -58 32 -84 33 -433 l0
-202 108 2 107 2 -1 305 0 305 -27 68 c-96 245 -344 377 -594 316z"/>
<path d="M3290 4189 c-182 -20 -343 -149 -411 -328 -30 -79 -36 -207 -14 -291
46 -178 187 -325 355 -370 64 -18 174 -19 247 -4 177 37 331 186 378 365 13
48 15 207 3 249 -28 99 -65 165 -134 234 -115 115 -257 164 -424 145z m160
-231 c71 -21 127 -74 165 -153 20 -41 24 -62 22 -130 -2 -69 -7 -86 -32 -125
-63 -100 -142 -145 -250 -143 -86 1 -144 24 -201 82 -60 60 -84 124 -80 214 3
78 18 115 67 171 78 90 192 121 309 84z"/>
<path d="M3933 4188 c-9 -16 1 -444 13 -501 30 -147 138 -278 341 -415 34 -23
65 -42 68 -42 3 0 22 -11 42 -24 41 -28 43 -28 148 37 154 95 276 206 331 300
59 102 67 145 70 410 1 130 -1 238 -5 238 -3 1 -52 2 -108 3 -87 2 -103 -1
-104 -14 0 -8 -1 -112 -3 -230 -3 -242 -9 -269 -82 -349 -37 -42 -190 -161
-205 -161 -14 0 -179 128 -207 161 -77 91 -80 112 -82 459 l0 135 -106 1 c-58
0 -108 -4 -111 -8z"/>
<path d="M4841 3400 c-4 -3 -7 -52 -7 -110 l1 -105 110 0 109 0 1 108 0 107
-30 1 c-16 0 -63 1 -103 2 -41 1 -77 0 -81 -3z"/>
<path d="M2850 2435 l0 -615 110 0 110 0 0 615 0 615 -110 0 -110 0 0 -615z"/>
<path d="M3140 2766 c-1 -187 2 -504 5 -528 12 -96 82 -219 166 -289 107 -89
180 -118 316 -124 214 -10 408 118 495 327 20 50 22 72 26 368 l3 315 -105 0
c-57 0 -107 -3 -110 -6 -3 -3 -6 -133 -6 -289 -1 -281 -1 -283 -26 -332 -90
-178 -316 -221 -454 -87 -39 38 -78 103 -86 143 -2 11 -5 144 -5 294 -1 190
-5 272 -13 273 -6 1 -55 2 -108 3 l-98 2 0 -70z"/>
<path d="M6081 4281 c-16 -29 -16 -28 44 -42 61 -14 80 -6 87 36 3 18 -3 20
-59 23 -53 3 -63 0 -72 -17z"/>
<path d="M996 2268 c-14 -54 -11 -56 57 -44 57 10 62 13 65 39 3 27 3 27 -56
27 -53 0 -60 -2 -66 -22z"/>
<path d="M5813 2205 c0 -9 13 -30 29 -47 30 -32 50 -28 61 12 6 22 1 27 -34
34 -13 2 -31 7 -40 11 -10 4 -16 0 -16 -10z"/>
</g>
</svg>
